<?xml version="1.0" encoding="UTF-8" standalone="no"?>
<!-- Created with sK1/UniConvertor (http://sk1project.org/) -->
<svg
xmlns:dc="http://purl.org/dc/elements/1.1/"
xmlns:cc="http://creativecommons.org/ns#"
xmlns:rdf="http://www.w3.org/1999/02/22-rdf-syntax-ns#"
xmlns:svg="http://www.w3.org/2000/svg"
xmlns="http://www.w3.org/2000/svg"
xmlns:sodipodi="http://sodipodi.sourceforge.net/DTD/sodipodi-0.dtd"
xmlns:inkscape="http://www.inkscape.org/namespaces/inkscape"
width="587.6037"
height="858.33655"
viewBox="0 0 470.08298 686.66921"
id="svg2"
version="1.1"
inkscape:version="0.48.0 r9654"
sodipodi:docname="USMP.svg"
style="fill-rule:evenodd">
<metadata
id="metadata72">
<rdf:RDF>
<cc:Work
rdf:about="">
<dc:format>image/svg+xml</dc:format>
<dc:type
rdf:resource="http://purl.org/dc/dcmitype/StillImage" />
<dc:title></dc:title>
</cc:Work>
</rdf:RDF>
</metadata>
<defs
id="defs70" />
<sodipodi:namedview
pagecolor="#ffffff"
bordercolor="#666666"
borderopacity="1"
objecttolerance="10"
gridtolerance="10"
guidetolerance="10"
inkscape:pageopacity="0"
inkscape:pageshadow="2"
inkscape:window-width="640"
inkscape:window-height="480"
id="namedview68"
showgrid="false"
fit-margin-top="0"
fit-margin-left="0"
fit-margin-right="0"
fit-margin-bottom="0"
inkscape:zoom="0.27842116"
inkscape:cx="293.85881"
inkscape:cy="423.3099"
inkscape:window-x="350"
inkscape:window-y="39"
inkscape:window-maximized="0"
inkscape:current-layer="svg2" />
<g
id="g6"
transform="translate(-62.550942,-72.923688)">
<path
inkscape:connector-curvature="0"
id="path10"
d="m 528.495,203.867 c -8.268,10.566 -23.43,19.753 -45.482,26.645 -22.052,7.351 -45.944,11.028 -71.673,11.028 -18.836,-0.003 -41.347,-5.514 -67.534,-17 -16.541,-7.353 -31.243,-15.621 -44.566,-24.35 l 0,-1.84 0,-0.458 -1.837,1.376 -1.837,-1.379 0,2.298 -1.378,0.917 -42.726,23.431 c -26.187,11.486 -48.7,17 -67.996,17 -25.728,0 -49.617,-3.677 -71.672,-11.028 -20.9159,-6.676 -35.7971,-15.509 -44.2265,-25.661 -0.8651,-1.039 -0.7974,-1.25 -0.7948,0.204 l 0,298.821 c 0,16.539 3.6741,36.295 11.0248,59.267 9.1903,28.024 21.1348,50.538 35.8365,67.996 14.242,16.997 38.134,36.295 72.131,58.347 l 62.484,37.214 28.486,14.24 c 11.025,5.973 17.917,11.486 20.215,17 l 0.92,-0.003 c 2.298,-5.513 9.19,-11.024 20.215,-16.999 l 28.485,-14.243 62.485,-37.215 c 33.999,-22.052 57.888,-41.35 72.131,-58.346 15.16,-17.461 27.107,-39.972 36.295,-67.996 7.35,-22.975 11.027,-42.729 11.027,-59.27 l -0.013,-299.996 z"
style="fill:#ffffff;stroke:none" />
<path
inkscape:connector-curvature="0"
id="path12"
d="m 299.238,198.353 11.947,-24.35 26.187,9.187 -10.566,-28.027 30.781,-13.322 -29.861,-16.542 10.569,-27.1066 -28.027,11.9446 -12.862,-33.0794 -17.92,33.9994 -24.808,-9.191 9.649,24.809 -32.16,15.16 32.162,16.539 -11.944,27.107 29.402,-11.489 12.406,27.107"
style="fill:#ffffff;stroke:none" />
<path
inkscape:connector-curvature="0"
id="path14"
d="m 297.711,199.763 13.474,-25.76 26.187,9.187 -10.566,-28.027 30.781,-13.322 -29.861,-16.542 10.569,-27.1066 -28.027,11.9446 -12.862,-33.0794 -17.92,33.9994 -24.808,-9.191 9.649,24.809 -32.16,15.16 32.162,16.539 -11.944,27.107 29.402,-11.489 15.924,25.771 z"
style="fill:none;stroke:#2c2c2b;stroke-width:8.26788998;stroke-linejoin:round" />
<path
inkscape:connector-curvature="0"
id="path16"
d="m 297.539,755.459 c -3.2,-4.578 -11.684,-9.573 -20.812,-14.518 -9.495,-4.748 -18.99,-9.496 -28.485,-14.243 -20.828,-12.406 -41.655,-24.812 -62.483,-37.215 -33.996,-22.052 -57.888,-41.35 -72.131,-58.347 -14.7009,-17.46 -26.6455,-39.971 -35.8358,-67.995 -7.3506,-22.975 -11.0247,-42.729 -11.0247,-59.27 0,-98.511 0,-197.019 0,-295.533 0,-1.355 -0.1876,-2.958 0.0026,-4.294 0.0313,-0.214 2.8038,3.088 3.6897,3.981 8.7525,8.821 22.6331,16.518 41.3312,22.485 22.055,7.351 45.944,11.027 71.673,11.027 19.298,-0.002 41.808,-5.514 67.996,-16.999 14.242,-7.812 28.485,-15.624 42.728,-23.434 0.461,-0.307 0.92,-0.612 1.378,-0.917 0,-0.766 0,-1.532 0,-2.298 0.615,0.459 1.228,0.917 1.84,1.376 0.612,-0.461 1.225,-0.92 1.837,-1.379 0,0.152 0,0.305 0,0.459 0,0.612 0,1.225 0,1.837 13.325,8.729 28.027,17 44.565,24.35 26.187,11.486 48.701,17 67.537,17 25.729,0 49.618,-3.677 71.673,-11.027 22.052,-6.892 37.212,-16.08 45.482,-26.646 0,100.001 0,200.006 0,300.01 0,16.538 -3.674,36.294 -11.024,59.266 -9.191,28.025 -21.135,50.538 -36.295,67.996 -14.243,16.997 -38.135,36.295 -72.131,58.347 -20.828,12.403 -41.655,24.809 -62.482,37.215 -9.496,4.745 -18.991,9.492 -28.486,14.24 -9.3,5.037 -17.401,9.868 -20.543,14.526 z"
style="fill:none;stroke:#2c2c2b;stroke-width:8.26788998;stroke-linejoin:round" />
<path
inkscape:connector-curvature="0"
id="path18"
d="m 470.148,261.296 -4.594,0 -7.812,0.917 -5.972,3.216 -4.594,5.511 c -0.917,1.837 -1.378,4.135 -1.378,7.351 l 0.92,6.433 3.215,4.594 3.677,3.215 4.596,2.755 5.053,1.837 6.894,4.593 0.918,3.677 -0.918,3.216 -1.837,2.295 -2.754,1.379 -4.135,0.458 -5.514,-0.461 -4.594,-1.837 -2.756,-1.837 -1.837,-0.461 -0.918,0 -0.458,0.917 -0.459,1.378 0,5.973 0.92,1.378 1.837,1.378 3.677,1.837 10.107,1.376 8.732,-0.917 6.892,-3.677 4.596,-5.974 1.837,-8.271 -0.917,-5.972 -3.215,-4.597 -3.677,-3.215 -5.052,-2.757 -4.594,-1.84 -4.133,-2.298 -2.757,-2.298 -0.917,-3.677 0.459,-2.298 1.381,-2.298 2.298,-1.378 3.677,-0.462 4.593,0.92 c 1.381,0 2.757,0.459 3.677,1.378 l 2.757,1.376 1.381,0.459 0.92,-0.459 0.458,-0.461 0.462,-1.837 0,-4.135 -0.459,-1.381 0,-0.917 -0.917,-0.462 -1.837,-1.378 -3.216,-1.381 -3.674,-0.917 -0.039,0.036 z"
style="fill:#2c2c2b;stroke:none" />
<path
inkscape:connector-curvature="0"
id="path20"
d="m 459.579,413.826 -0.917,-0.461 -6.892,0 -0.458,0.461 -0.918,0.459 -2.298,3.674 -0.917,3.215 0,3.216 0.92,5.972 2.757,5.052 5.513,3.216 6.892,0.917 5.973,-0.461 4.596,-2.298 3.216,-3.216 6.433,-10.11 2.298,-2.298 3.677,-0.917 2.759,0.458 2.298,1.379 1.382,2.295 0.458,3.216 -0.456,4.593 -4.135,6.893 0.461,0.917 0.461,0 1.837,0.458 5.055,0 1.837,-0.919 1.381,-1.379 1.381,-2.757 1.837,-7.809 -1.378,-6.433 -3.215,-5.514 -5.973,-3.677 -7.809,-1.378 -5.972,0.917 -4.135,2.298 -3.213,3.213 -6.434,10.108 -2.295,2.298 -3.674,0.917 -2.299,-0.459 -1.837,-0.919 -1.378,-1.84 -0.459,-2.757 0.462,-3.676 2.756,-5.053 0.92,-0.92 -0.461,-0.92 -0.037,0.029 z"
style="fill:#2c2c2b;stroke:none" />
<path
inkscape:connector-curvature="0"
id="path22"
d="m 500.932,474.013 -9.646,-3.218 -13.323,-1.379 -13.323,0.917 -9.188,3.216 -5.972,5.513 c -0.92,1.837 -1.379,4.136 -1.379,6.892 l 1.837,7.81 6.434,5.513 9.649,3.216 12.864,1.378 13.787,-1.381 9.19,-2.757 5.514,-5.513 1.839,-7.351 -1.837,-7.351 -6.446,-5.505 z m -30.325,21.593 -6.892,-1.837 -4.133,-2.759 -1.837,-4.594 1.378,-4.597 4.597,-2.757 6.431,-1.378 8.273,-0.461 8.27,0.458 6.431,1.379 c 2.298,1.378 4.136,2.298 4.594,3.215 l 1.84,4.594 -1.837,4.135 -4.133,3.216 -6.431,1.378 -16.551,0.008 z"
style="fill:#2c2c2b;stroke:none" />
<path
inkscape:connector-curvature="0"
id="path24"
d="m 447.873,520.428 0.917,-0.458 0.183,-0.092 0.191,0.06 1.399,0.443 0.077,0.025 0.071,0.053 1.837,1.379 0.032,0.025 39.971,35.378 0.1,0.088 0.043,0.129 0.458,1.378 0.053,0.158 -0.053,0.157 -0.461,1.378 -0.025,0.075 -0.049,0.065 -1.355,1.805 -0.881,1.761 -0.452,1.349 -0.065,0.194 -0.185,0.093 -0.845,0.424 -0.405,0.405 -0.147,0.146 -0.206,0 -1.838,0 -0.074,0 -0.066,-0.019 -50.079,-14.702 -0.023,-0.007 -0.022,-0.008 -2.298,-0.92 -0.05,-0.02 -0.04,-0.027 -1.379,-0.917 -0.222,-0.148 0,-0.268 0,-1.379 0,-0.13 0.062,-0.112 2.298,-4.132 0.037,-0.066 0.046,-0.046 0.917,-0.917 0.146,-0.147 0.207,0 0.917,0 0.114,0 0.109,0.055 0.874,0.437 41.317,12.178 -32.629,-27.408 -0.031,-0.029 -0.92,-0.917 -0.057,-0.057 -0.037,-0.074 -0.458,-0.917 -0.093,-0.185 0.065,-0.194 0.459,-1.379 0.015,-0.046 0.01,-0.02 0.917,-1.837 0.017,-0.033 0.032,-0.043 1.379,-1.837 0.07,-0.094 0.105,-0.053 z"
style="fill:#000000;stroke:none" />
<path
inkscape:connector-curvature="0"
id="path26"
d="m 296.022,263.592 -1.837,0.458 -0.917,0.459 0,56.051 0.917,0.459 1.84,0.458 4.594,0 1.839,-0.458 0.459,-0.461 0.461,-0.92 0,-54.212 -0.458,-0.92 -0.459,-0.461 -1.837,-0.458 -4.602,0.005 z"
style="fill:#2c2c2b;stroke:none" />
<path
inkscape:connector-curvature="0"
id="path28"
d="m 257.89,268.647 -3.676,-3.216 -5.053,-1.839 -16.538,0 c -0.917,0 -1.378,0.458 -1.837,0.92 l -0.92,2.754 0,52.836 0.92,0.458 1.378,0.459 4.597,0 1.378,-0.461 0.461,-0.459 0.459,-0.92 0,-22.052 2.759,0 2.757,0.917 1.837,1.379 1.84,3.215 5.514,16.539 0,0.917 0.917,0.458 1.381,0.459 5.052,0 1.381,-0.461 0.918,-0.459 0,-2.298 -7.349,-20.218 -3.676,-3.674 3.676,-1.839 2.757,-3.216 1.84,-4.596 0.458,-5.055 -0.917,-5.973 -2.314,-4.575 z m -10.568,4.133 3.215,2.756 0.92,4.594 -0.459,3.677 -1.378,2.295 -2.298,1.838 -3.674,0.458 -4.594,0 0,-16.08 6.433,0 1.835,0.462 z"
style="fill:#2c2c2b;stroke:none" />
<path
inkscape:connector-curvature="0"
id="path30"
d="m 327.723,263.592 0,1.378 -0.458,2.296 0.461,2.298 0,1.379 0.458,0.917 0.92,0.458 12.406,0 0,47.322 0.92,0.459 1.378,0.459 5.055,0 1.379,-0.462 0.919,-0.458 0.459,-0.92 0,-46.402 12.406,0 0.461,-0.461 0.461,-0.92 0.459,-1.379 0,-4.596 -0.459,-1.379 -0.458,-0.919 -36.295,0 -0.472,0.93 z"
style="fill:#2c2c2b;stroke:none" />
<path
inkscape:connector-curvature="0"
id="path32"
d="m 407.205,265.89 -0.459,-0.92 -0.917,-0.92 -1.837,-0.458 -5.972,0 -1.379,0.458 -0.917,0.918 -0.461,0.917 -13.323,53.294 0.461,1.379 0.92,0.917 4.594,0 1.378,-0.459 0.462,-0.461 0.461,-1.378 2.757,-11.028 15.621,0 2.757,11.486 0.458,0.917 0.461,0.459 1.837,0.459 5.055,0 0.92,-0.92 0.461,-1.379 -13.338,-53.281 z m -0.459,33.538 -11.944,0 5.972,-24.35 5.972,24.35 z"
style="fill:#2c2c2b;stroke:none" />
<path
inkscape:connector-curvature="0"
id="path34"
d="m 109.032,263.592 -0.459,1.378 12.406,54.212 0.461,0.917 0.92,0.92 0.917,0.458 6.434,0 1.378,-0.461 0.92,-0.461 0.461,-1.378 12.406,-54.215 0,-1.378 -0.92,-0.459 -2.295,-0.461 -2.299,0 -1.378,0.459 -0.917,0.917 0,0.917 -9.647,45.024 -0.458,0 -9.649,-45.024 -0.917,-1.837 -1.379,-0.461 -4.594,0 -1.391,0.933 z"
style="fill:#2c2c2b;stroke:none" />
<path
inkscape:connector-curvature="0"
id="path36"
d="m 201.378,264.97 -0.459,-0.92 -24.347,0 -2.298,0.918 -0.459,2.756 0,50.538 0.461,3.215 2.298,0.459 24.351,0 0.458,-0.92 0.461,-1.378 0,-4.135 -0.458,-1.84 -0.917,-0.917 -17,0 0,-16.541 14.704,0 0.459,-0.92 0.461,-1.378 0,-4.136 -0.459,-1.378 -0.458,-0.92 -14.704,0 0,-14.243 16.541,0 0.919,-0.461 0.459,-0.458 -0.013,-7.341 z"
style="fill:#2c2c2b;stroke:none" />
<path
inkscape:connector-curvature="0"
id="path38"
d="m 90.654,410.152 -0.9172,1.837 -0.4586,22.052 0.4612,0.917 0.9172,0.459 1.381,0.459 5.0525,0 1.381,-0.462 0.9198,-0.458 0.4586,-15.621 49.6205,0.458 0.458,-0.92 0.462,-1.378 0.461,-2.298 -0.461,-2.757 0,-1.381 -0.918,-0.917 -55.5896,-0.92 -3.2284,0.93 z"
style="fill:#2c2c2b;stroke:none" />
<path
inkscape:connector-curvature="0"
id="path40"
d="m 147.625,459.77 -0.459,-0.92 -58.3464,0 -0.4586,0.917 -0.4586,1.379 0,4.593 0.4586,1.379 0.4612,0.459 0.9198,0.458 56.51,0 0.92,-0.458 0.458,-0.462 0.461,-1.378 0,-4.597 -0.466,-1.37 z"
style="fill:#2c2c2b;stroke:none" />
<path
inkscape:connector-curvature="0"
id="path42"
d="m 86.0601,498.363 -0.9172,2.754 2.7568,22.052 1.8397,5.053 3.2154,4.596 3.6766,3.213 4.5936,1.837 5.975,0.458 5.055,-1.378 4.135,-3.215 2.757,-3.677 0.92,-5.055 2.298,3.215 3.216,2.296 3.215,1.378 4.135,0 6.893,-1.837 4.135,-4.596 2.298,-6.431 -1.837,-24.35 -0.917,-2.298 -3.216,-0.92 -51.4544,5.513 c -1.3784,0 -2.2982,0.459 -2.7725,1.392 z m 26.1899,8.27 0.459,6.89 0,5.513 -1.379,3.677 -2.295,2.296 -3.677,0.917 -3.674,-0.459 -2.7569,-1.381 -1.837,-3.215 -0.9172,-4.135 -0.9173,-8.729 16.9944,-1.374 z m 10.566,9.647 -1.378,-4.136 -0.459,-6.433 15.16,-1.837 0.92,5.972 0,4.594 -1.379,3.215 -2.295,1.837 -3.216,0.918 -2.756,-0.462 -2.755,-1.378 -1.842,-2.29 z"
style="fill:#2c2c2b;stroke:none" />
<path
inkscape:connector-curvature="0"
id="path44"
d="m 374.126,610.924 -0.459,0.459 0.459,0.917 2.298,3.215 2.298,2.296 0.92,0.458 0.461,0 8.271,-6.892 28.944,35.375 0.458,0.459 0.92,0 1.378,-0.459 1.84,-1.381 1.379,-1.378 0.919,-1.379 0,-0.461 -0.458,-0.92 -28.944,-35.375 7.809,-6.433 0.461,-0.459 -0.459,-0.919 -0.458,-1.379 -1.379,-1.84 -1.378,-1.378 -1.378,-0.92 -0.918,-0.461 -0.458,0 -22.526,18.855 z"
style="fill:#2c2c2b;stroke:none" />
<path
inkscape:connector-curvature="0"
id="path46"
d="m 350.695,627.923 -0.459,-0.461 -0.919,0 -3.674,1.379 -1.837,1.378 -0.918,0.917 -0.458,0.918 0.458,0.917 28.945,48.242 0.461,0.458 0.92,0.459 1.378,-0.461 1.837,-0.918 1.84,-1.381 0.919,-0.919 0.459,-0.918 0,-0.919 -28.952,-48.691 z"
style="fill:#2c2c2b;stroke:none" />
<path
inkscape:connector-curvature="0"
id="path48"
d="m 288.21,644.462 -2.754,0.917 -0.458,3.215 5.052,50.538 1.381,2.757 2.757,0.459 15.621,-1.382 11.945,-3.215 4.596,-2.757 3.215,-3.676 1.837,-4.597 0.462,-5.972 -1.379,-5.055 -3.215,-3.677 -3.674,-2.757 -5.053,-0.917 3.216,-2.301 2.298,-3.215 1.378,-3.216 0,-4.135 -1.837,-6.433 -4.593,-4.136 -6.431,-2.298 -24.364,1.853 z m 24.351,10.566 0.919,3.215 0,2.757 -1.378,2.755 -2.296,1.836 -4.135,1.379 -6.892,0.459 -1.376,-15.16 10.566,-0.462 2.757,0.918 1.835,2.303 z m 3.218,21.593 2.298,2.299 1.378,3.674 -0.458,3.676 -1.837,2.755 -2.757,1.837 -4.133,0.919 -8.729,0.918 -1.837,-16.541 7.351,-0.918 5.513,0 3.211,1.381 z"
style="fill:#2c2c2b;stroke:none" />
<path
inkscape:connector-curvature="0"
id="path50"
d="m 259.515,638.241 1.378,1.379 0.105,0.104 0.075,0.146 0.469,0.906 0.19,0.368 -0.128,0.394 -16.08,49.618 -0.023,0.066 -0.92,2.301 -0.075,0.189 -0.148,0.147 -0.919,0.917 -0.29,0.289 -0.413,0 -1.379,0 -0.304,0 -0.246,-0.164 -4.136,-2.754 -0.093,-0.062 -0.063,-0.063 -1.378,-1.378 -0.289,-0.29 0,-0.417 0,-0.918 0,-0.16 0.05,-0.152 3.434,-10.306 -11.111,-7.405 -8.612,8.18 -0.288,0.273 -0.399,0 -0.918,0 -0.241,0 -0.204,-0.101 -2.759,-1.379 -0.067,-0.033 -0.085,-0.064 -1.838,-1.379 -0.061,-0.046 -0.044,-0.044 -0.92,-0.917 -0.6,-0.599 0.491,-0.686 2.298,-3.215 0.058,-0.081 0.067,-0.064 36.753,-34.916 0.066,-0.062 0.071,-0.048 1.378,-0.917 0.247,-0.164 0.304,0 0.917,0 0.165,0 0.152,0.051 1.378,0.461 0.103,0.034 0.093,0.056 4.593,2.757 0.117,0.07 0.079,0.078 z m -17.314,29.935 6.092,-17.916 -13.616,12.901 7.524,5.015 z"
style="fill:#000000;stroke:none" />
<path
inkscape:connector-curvature="0"
id="path52"
d="m 171.975,577.383 0.461,-0.917 0,-0.461 -11.944,-23.892 -1.837,-1.837 -3.215,0.459 -46.403,23.889 -2.295,1.837 0.458,2.298 11.947,24.348 0.459,0.458 1.381,0 1.378,-0.458 3.677,-1.84 1.378,-0.92 0.462,-0.917 0,-0.92 -8.729,-16.999 15.162,-7.812 6.892,14.704 0.92,0.458 0.459,0 1.839,-0.461 3.677,-1.837 1.378,-0.92 0.461,-0.919 -0.458,-0.459 -6.892,-14.704 12.864,-6.433 8.729,16.999 0.461,0.459 0.92,0 1.379,-0.459 4.135,-1.84 0.896,-0.904 z"
style="fill:#2c2c2b;stroke:none" />
<path
inkscape:connector-curvature="0"
id="path54"
d="m 190.812,593.924 -2.754,1.837 -32.16,44.104 -0.458,0.918 0.458,0.919 0.92,1.376 4.135,2.757 1.379,0.459 0.919,0.458 0.92,-0.917 13.784,-18.378 4.136,4.133 0.917,2.757 -1.376,7.809 -4.596,14.701 0.461,0.917 2.757,2.757 4.135,2.757 1.381,-0.461 0.458,-0.459 0.462,-0.92 5.513,-18.836 0.459,-3.218 0,-3.216 -0.917,-2.298 5.055,0.459 4.135,-0.917 4.135,-2.301 4.136,-4.136 2.756,-5.511 0.92,-5.513 -1.378,-5.055 -3.677,-4.597 -1.376,-1.837 -13.325,-9.649 -2.314,-0.899 z m 9.649,18.378 1.378,4.594 -2.298,4.594 -2.296,2.757 -3.215,1.378 -3.216,-0.461 -7.809,-5.055 10.108,-13.784 5.975,4.596 1.373,1.381 z"
style="fill:#2c2c2b;stroke:none" />
<path
inkscape:connector-curvature="0"
id="path56"
d="m 438.445,485.499 0,-152.072 -283.008,0 0,152.072 c 0,12.861 5.052,28.024 14.701,45.941 13.323,23.43 31.243,40.891 53.753,53.294 l 51.458,27.107 20.676,12.862 0,1.837 0.92,-0.917 0.458,0.917 0,-1.84 20.677,-12.864 51.457,-27.107 c 22.972,-12.406 40.889,-29.864 53.753,-53.295 10.107,-17.919 15.162,-33.079 15.155,-45.935 z M 217.46,461.148 c -4.135,2.757 -5.972,5.514 -5.513,8.729 l 4.596,10.566 c 2.298,3.216 4.594,4.594 5.972,4.594 -5.972,0.92 -11.485,-1.376 -17.458,-6.431 -6.892,-5.974 -11.947,-14.242 -14.701,-25.27 -6.892,-2.754 -10.108,-6.431 -9.19,-11.024 l -13.323,-0.462 0,-98.776 115.779,90.967 c 1.837,-21.596 2.295,-34.458 0.917,-38.593 -1.376,-4.135 -4.594,-6.892 -9.646,-9.19 l -16.539,1.378 c -3.215,3.216 -4.135,1.84 -2.298,-3.215 1.84,-5.055 5.055,-9.188 9.19,-12.406 l 12.862,-6.892 8.732,-0.917 c 0,-2.76 0.917,-5.055 2.757,-7.354 2.295,-2.295 4.593,-3.215 7.35,-3.674 l 0,-10.11 128.641,0 -111.641,87.294 56.051,-0.461 c 8.271,-5.055 11.947,-9.649 11.027,-14.702 -0.458,-3.218 -2.298,-6.433 -5.513,-9.649 l -4.594,-4.593 11.027,3.212 c 8.729,4.594 15.621,13.326 20.674,26.188 6.892,4.594 10.107,8.729 9.649,12.405 l 16.999,0 0.459,35.834 c -1.378,25.729 -6.89,43.187 -16.08,52.377 l -103.371,-77.186 0,92.346 c 0,12.403 3.674,18.378 11.025,18.837 6.895,0.458 12.865,-3.216 17,-10.108 -0.459,6.89 -3.216,13.782 -7.81,19.754 -5.055,6.892 -11.485,11.486 -19.295,12.864 l -6.892,7.351 -7.35,2.298 0,15.16 -47.781,-26.648 -30.323,-16.08 c -16.999,-10.569 -29.864,-23.892 -38.132,-39.51 l 96.023,-72.592 -53.294,0 -5.986,3.689 z"
style="fill:#2c2c2b;stroke:none" />
<path
inkscape:connector-curvature="0"
id="path58"
d="m 299.699,443.69 18.837,13.323 51.915,-0.461 c 2.299,0 5.053,0.92 7.351,2.757 2.757,2.298 4.135,5.055 4.135,8.27 l -1.837,9.188 -6.43,8.27 c 8.729,-1.378 16.079,-6.433 22.052,-14.242 4.135,-5.973 6.43,-11.945 6.892,-17.917 4.594,-0.461 7.809,-3.218 9.649,-9.191 l -112.564,0.003 z"
style="fill:#2c2c2b;stroke:none" />
<path
inkscape:connector-curvature="0"
id="path60"
d="m 227.568,430.826 c -5.972,-0.461 -10.108,-1.84 -12.406,-4.594 l -3.215,-7.812 c -0.917,-4.596 0.92,-10.569 5.972,-17.458 -13.323,6.431 -22.052,16.997 -26.646,31.701 -5.514,0.458 -8.729,2.754 -9.649,6.889 l 0.92,2.757 113.939,-0.461 -12.864,-7.809 -5.052,-3.216 -50.999,0.003 z"
style="fill:#2c2c2b;stroke:none" />
<path
inkscape:connector-curvature="0"
id="path62"
d="m 323.588,371.559 c -5.972,-4.135 -11.945,-6.892 -17.917,-8.27 -0.458,-5.973 -3.215,-9.188 -8.729,-10.108 l 0,87.291 11.027,-8.729 0.459,-33.999 3.218,-7.351 c 1.837,-3.215 5.511,-4.594 10.566,-5.055 4.594,-0.459 8.271,0.461 11.028,2.757 0.919,-5.514 -2.299,-11.025 -9.652,-16.536 z"
style="fill:#2c2c2b;stroke:none" />
<path
inkscape:connector-curvature="0"
id="path64"
d="m 296.481,443.69 -14.24,11.486 0.461,98.777 c -0.461,6.889 -4.597,11.025 -12.864,11.486 l -7.81,-1.379 -8.27,-8.729 c 1.378,11.484 5.972,19.754 13.784,25.268 5.055,3.674 10.107,5.513 15.16,5.513 2.298,5.97 7.351,9.647 14.243,11.025 L 296.481,443.69 z"
style="fill:#2c2c2b;stroke:none" />
<path
inkscape:connector-curvature="0"
id="path66"
d="m 438.445,485.499 c 0,12.864 -5.053,28.024 -15.16,45.943 -12.865,23.431 -30.781,40.889 -53.753,53.295 l -51.458,27.104 -20.673,12.864 0,1.837 -0.459,-0.919 -0.917,0.917 0,-1.837 -20.674,-12.864 -51.457,-27.108 c -22.511,-12.405 -40.43,-29.864 -53.753,-53.294 -9.646,-17.919 -14.701,-33.079 -14.701,-45.944 l 0,-152.074 283.01,0 -0.005,152.08 z"
style="fill:none;stroke:#ffffff;stroke-width:4.59385014" />
</g>
</svg>
